HIERARCHY
ROOT Hips
{
 OFFSET 0.000000 0.000000 0.000000
 CHANNELS 6 Xposition Yposition Zposition Yrotation Xrotation Zrotation
 JOINT Chest
 {
  OFFSET 0.000000 9.857222 0.000240
  CHANNELS 3 Yrotation Xrotation Zrotation
  JOINT Chest2
  {
   OFFSET 0.000000 10.876940 -0.000436
   CHANNELS 3 Yrotation Xrotation Zrotation
   JOINT Chest3
   {
    OFFSET 0.000000 9.827798 0.000000
    CHANNELS 3 Yrotation Xrotation Zrotation
    JOINT Chest4
    {
     OFFSET 0.000000 9.827798 0.000000
     CHANNELS 3 Yrotation Xrotation Zrotation
     JOINT Neck
     {
      OFFSET 0.000000 13.831992 0.000000
      CHANNELS 3 Yrotation Xrotation Zrotation
      JOINT Head
      {
       OFFSET 0.000000 9.147643 -0.001036
       CHANNELS 3 Yrotation Xrotation Zrotation
       End Site
       {
        OFFSET 0.000000 17.515799 -0.000541
       }
      }
     }
     JOINT RightCollar
     {
      OFFSET -3.001579 7.717577 0.000000
      CHANNELS 3 Yrotation Xrotation Zrotation
      JOINT RightShoulder
      {
       OFFSET -14.002642 0.000000 0.000000
       CHANNELS 3 Yrotation Xrotation Zrotation
       JOINT RightElbow
       {
        OFFSET -30.053852 0.000000 0.000000
        CHANNELS 3 Yrotation Xrotation Zrotation
        JOINT RightWrist
        {
         OFFSET -24.564923 0.000000 -0.000000
         CHANNELS 3 Yrotation Xrotation Zrotation
         End Site
         {
          OFFSET -18.334355 0.000000 0.000000
         }
        }
       }
      }
     }
     JOINT LeftCollar
     {
      OFFSET 3.001579 7.717577 0.000000
      CHANNELS 3 Yrotation Xrotation Zrotation
      JOINT LeftShoulder
      {
       OFFSET 14.002642 0.000000 0.000000
       CHANNELS 3 Yrotation Xrotation Zrotation
       JOINT LeftElbow
       {
        OFFSET 30.053852 0.000000 0.000000
        CHANNELS 3 Yrotation Xrotation Zrotation
        JOINT LeftWrist
        {
         OFFSET 24.564923 0.000000 -0.000000
         CHANNELS 3 Yrotation Xrotation Zrotation
         End Site
         {
          OFFSET 18.334355 0.000000 0.000000
         }
        }
       }
      }
     }
    }
   }
  }
 }
 JOINT RightHip
 {
  OFFSET -8.003235 -0.001175 -0.000120
  CHANNELS 3 Yrotation Xrotation Zrotation
  JOINT RightKnee
  {
   OFFSET 0.000000 -41.759727 0.000113
   CHANNELS 3 Yrotation Xrotation Zrotation
   JOINT RightAnkle
   {
    OFFSET 0.000000 -40.728748 0.000159
    CHANNELS 3 Yrotation Xrotation Zrotation
    JOINT RightToe
    {
     OFFSET 0.000000 -6.515296 14.732841
     CHANNELS 3 Yrotation Xrotation Zrotation
     End Site
     {
      OFFSET 0.000000 -1.502839 6.412115
     }
    }
   }
  }
 }
 JOINT LeftHip
 {
  OFFSET 8.003235 -0.001175 -0.000120
  CHANNELS 3 Yrotation Xrotation Zrotation
  JOINT LeftKnee
  {
   OFFSET 0.000000 -41.759727 0.000113
   CHANNELS 3 Yrotation Xrotation Zrotation
   JOINT LeftAnkle
   {
    OFFSET 0.000000 -40.728748 0.000159
    CHANNELS 3 Yrotation Xrotation Zrotation
    JOINT LeftToe
    {
     OFFSET 0.000000 -6.515296 14.732841
     CHANNELS 3 Yrotation Xrotation Zrotation
     End Site
     {
      OFFSET 0.000000 -1.502839 6.412115
     }
    }
   }
  }
 }
}
MOTION
Frames: 7
Frame Time: 0.016667
8.359062 87.442871 8.249166 -36.175336 0.217802 -0.039829 1.252179 11.017914 1.015705 0.038463 4.842875 -0.347151 0.038463 4.842875 -0.347151 0.031587 3.632136 -0.260514 -3.447140 16.676486 3.193853 -7.511799 -4.906623 7.131081 3.440328 -7.964822 4.838556 -3.550624 23.851515 31.346920 42.208712 -22.395737 -21.914420 2.328099 -0.634753 -12.248502 -10.433135 -0.471824 -5.996970 5.196093 9.807268 -40.231684 -46.781107 5.191693 15.284277 20.450942 -2.604986 -1.673133 -1.580305 -4.192536 3.766448 -1.947095 16.572651 -9.772706 2.219857 -7.119892 -0.253193 1.279105 -3.027650 2.574624 12.727400 -4.629046 -4.151339 -5.591380 22.607262 -3.478160 3.560566 -17.101768 -4.460082 -1.040515 4.240851 -3.011909
8.296350 87.912453 7.392129 -37.091270 -8.122775 -0.385843 2.278958 11.079934 1.346023 0.575377 5.246259 -0.441815 0.575377 5.246259 -0.441815 0.435033 3.934286 -0.336081 -4.072681 19.283259 3.268045 -8.472696 -0.012860 7.252859 -1.872816 -7.608489 5.882420 3.064923 29.282500 36.743129 42.829061 -19.563998 -18.517187 2.547958 -0.986422 -11.933769 -5.838133 -4.126862 -5.056348 -5.421789 22.025044 -47.472022 -46.176011 8.612948 13.085514 19.095570 -3.226347 -2.918173 -1.126741 3.292766 3.715619 -2.396329 18.026050 -8.705658 2.182595 -8.846873 0.335619 2.354669 -2.487135 1.563170 12.434834 3.060688 -4.155648 -8.418986 23.607785 -3.479358 8.446745 -17.724201 -0.600557 -3.212842 3.110666 -5.589135
8.616345 88.622017 7.104111 -34.896172 -7.967492 1.217568 0.329548 8.174597 -1.013940 0.943888 3.993346 -0.567058 0.943888 3.993346 -0.567058 0.711340 2.994146 -0.431299 -4.578353 21.570993 3.496375 -9.276670 4.296306 7.621618 -3.307753 0.851232 7.575313 5.945608 24.759319 39.911979 43.887742 -18.633733 -16.139473 2.855227 -1.276547 -11.595074 -7.843762 5.060324 -5.417638 -12.537047 21.923113 -52.291153 -46.308301 6.456753 13.709249 17.995143 -3.595305 -3.088959 -3.877815 1.822072 2.017104 1.255363 20.950695 -7.839090 -1.167321 -9.993754 -0.107299 3.051227 -2.134253 1.821923 7.251165 2.183239 -6.322550 -2.113738 23.135408 -4.746118 5.946284 -14.665342 5.724543 -4.141496 0.273133 -7.675223
7.815008 88.804875 5.858849 -34.218930 -6.707086 1.288414 -0.136970 8.006431 -0.955847 0.870548 2.975521 -0.711130 0.870548 2.975521 -0.711130 0.656230 2.230637 -0.537471 -4.676377 22.217238 3.567163 -9.422546 5.510103 7.721136 -2.017984 4.188393 8.853252 8.336707 22.657293 43.140765 45.824421 -19.706435 -16.497353 3.074003 -0.989628 -11.541545 -11.740208 9.755216 -7.986423 -11.058561 15.897159 -52.925947 -46.303785 6.660651 10.768319 17.621352 -3.506574 -2.009236 -6.117542 0.079454 3.002283 0.674705 21.565900 -8.972995 1.408569 -10.723240 -1.097942 2.468566 -1.696492 1.830733 11.001538 0.534664 -3.294706 1.134973 23.753142 -5.274842 -5.525173 -14.180967 6.993786 0.353099 0.653474 -6.064518
5.632476 89.092216 4.889835 -39.527690 -8.496469 1.189074 4.972169 9.031213 0.028896 0.940241 2.674626 -0.829093 0.940241 2.674626 -0.829093 0.708685 2.004705 -0.625826 -4.791700 22.868186 3.560296 -9.578414 6.726064 7.684169 -1.358667 5.932223 9.459748 15.839702 24.095001 49.069974 46.538238 -21.270764 -18.749377 3.177125 -0.888578 -12.078310 -12.367256 10.986776 -9.319692 -16.187289 14.878530 -56.747726 -45.224672 4.342611 11.699198 17.387621 -2.599333 -0.402739 -0.285203 1.811856 4.915981 -1.336673 21.043965 -10.942390 7.322452 -10.453386 0.142168 -2.333070 -1.581009 -0.166242 24.239069 1.320440 1.017386 -1.097213 27.091969 -3.165435 -13.129491 -15.161589 4.691871 3.686844 -0.750780 -3.975210
3.581489 89.428862 4.691894 -46.323943 -11.036290 0.897555 12.092028 11.025419 1.807889 0.970118 2.440996 -0.893333 0.970118 2.440996 -0.893333 0.731050 1.829340 -0.673777 -4.972256 23.320053 3.582215 -9.874390 7.583549 7.731518 -1.362573 6.189946 9.629964 24.854714 24.866864 56.099193 46.091607 -21.197500 -19.923018 3.559938 -0.834593 -10.711841 -14.791079 12.428648 -10.589199 -25.723831 16.726565 -60.352453 -43.623654 -0.686613 15.814595 16.492144 -2.692661 -0.020195 9.062720 3.245459 7.369311 -0.755080 22.930877 -10.669185 9.261735 -9.578039 1.328044 -7.055201 -3.362603 -2.159089 28.907768 2.798860 5.113369 -10.975482 28.208944 -7.966623 -5.298116 -15.485252 3.018490 5.327221 -2.736875 -2.606958
6.125393 89.436367 4.641958 -39.184174 -5.562028 3.345430 5.211534 5.127964 -2.546806 0.808256 2.410685 -0.874937 0.808256 2.410685 -0.874937 0.609557 1.806865 -0.659297 -5.148881 23.613596 3.489658 -10.146073 8.134990 7.584667 0.489456 8.376137 10.071766 35.672022 24.464682 62.710601 46.932199 -23.329492 -23.325960 4.315551 -0.734780 -8.614439 -16.519465 13.440228 -11.252827 -31.897082 15.969814 -61.555225 -41.452067 -1.632603 15.398663 15.271310 -3.340780 -0.498692 3.677383 -2.418849 3.113443 0.801670 23.537246 -9.664566 1.371893 -10.908042 0.215599 -1.571715 -1.949169 -0.068886 12.241877 -2.533659 -7.525294 -4.469155 27.842608 -3.518984 10.149828 -13.848467 5.258106 -4.516190 -3.551790 -5.692644
